<mxfile host="app.diagrams.net" modified="2023-04-05T16:31:31.118Z" agent="Mozilla/5.0 (Windows NT 10.0; Win64; x64) AppleWebKit/537.36 (KHTML, like Gecko) Chrome/111.0.0.0 Safari/537.36 Edg/111.0.1661.62" etag="mQnST0gyh4-3hd7HLZAR" version="21.1.2" type="github">
  <diagram name="第 1 页" id="RxZDRAVCk1ZgQwJ-tOWn">
    <mxGraphModel dx="-123" dy="895" grid="0" gridSize="10" guides="1" tooltips="1" connect="1" arrows="1" fold="1" page="1" pageScale="1" pageWidth="1654" pageHeight="2336" math="0" shadow="0">
      <root>
        <mxCell id="0" />
        <mxCell id="1" parent="0" />
        <mxCell id="lr75-girmY2DZmhZpHpu-1" value="" style="rounded=0;whiteSpace=wrap;html=1;fontSize=30;fillColor=#9AC9DB;" vertex="1" parent="1">
          <mxGeometry x="1703.3899999999999" y="178" width="980" height="50" as="geometry" />
        </mxCell>
        <mxCell id="lr75-girmY2DZmhZpHpu-2" value="" style="rounded=0;whiteSpace=wrap;html=1;fontSize=30;fillColor=#F3B7B8;" vertex="1" parent="1">
          <mxGeometry x="1793.3899999999999" y="188" width="30" height="30" as="geometry" />
        </mxCell>
        <mxCell id="lr75-girmY2DZmhZpHpu-3" value="" style="rounded=0;whiteSpace=wrap;html=1;fontSize=30;fillColor=#F3B7B8;" vertex="1" parent="1">
          <mxGeometry x="1833.3899999999999" y="188" width="30" height="30" as="geometry" />
        </mxCell>
        <mxCell id="lr75-girmY2DZmhZpHpu-4" value="" style="rounded=0;whiteSpace=wrap;html=1;fontSize=30;fillColor=#F3B7B8;" vertex="1" parent="1">
          <mxGeometry x="1713.3899999999999" y="188" width="30" height="30" as="geometry" />
        </mxCell>
        <mxCell id="lr75-girmY2DZmhZpHpu-5" value="" style="rounded=0;whiteSpace=wrap;html=1;fontSize=30;fillColor=#F3B7B8;" vertex="1" parent="1">
          <mxGeometry x="1753.3899999999999" y="188" width="30" height="30" as="geometry" />
        </mxCell>
        <mxCell id="lr75-girmY2DZmhZpHpu-6" value="" style="endArrow=none;html=1;rounded=0;fontSize=30;" edge="1" parent="1">
          <mxGeometry width="50" height="50" relative="1" as="geometry">
            <mxPoint x="1713.3899999999999" y="298" as="sourcePoint" />
            <mxPoint x="1713.3899999999999" y="238" as="targetPoint" />
          </mxGeometry>
        </mxCell>
        <mxCell id="lr75-girmY2DZmhZpHpu-7" value="" style="endArrow=none;html=1;rounded=0;fontSize=30;" edge="1" parent="1">
          <mxGeometry width="50" height="50" relative="1" as="geometry">
            <mxPoint x="1945.79" y="290" as="sourcePoint" />
            <mxPoint x="1945.79" y="230" as="targetPoint" />
          </mxGeometry>
        </mxCell>
        <mxCell id="lr75-girmY2DZmhZpHpu-8" value="" style="endArrow=classic;html=1;rounded=0;fontSize=30;" edge="1" parent="1">
          <mxGeometry width="50" height="50" relative="1" as="geometry">
            <mxPoint x="1867" y="268" as="sourcePoint" />
            <mxPoint x="1939" y="268" as="targetPoint" />
          </mxGeometry>
        </mxCell>
        <mxCell id="lr75-girmY2DZmhZpHpu-9" value="" style="endArrow=classic;html=1;rounded=0;fontSize=30;" edge="1" parent="1">
          <mxGeometry width="50" height="50" relative="1" as="geometry">
            <mxPoint x="1807" y="268" as="sourcePoint" />
            <mxPoint x="1723.3899999999999" y="268" as="targetPoint" />
          </mxGeometry>
        </mxCell>
        <mxCell id="lr75-girmY2DZmhZpHpu-10" value="" style="rounded=0;whiteSpace=wrap;html=1;fontSize=30;fillColor=#F3B7B8;" vertex="1" parent="1">
          <mxGeometry x="2068.39" y="188" width="30" height="30" as="geometry" />
        </mxCell>
        <mxCell id="lr75-girmY2DZmhZpHpu-11" value="" style="rounded=0;whiteSpace=wrap;html=1;fontSize=30;fillColor=#F3B7B8;" vertex="1" parent="1">
          <mxGeometry x="2108.39" y="188" width="30" height="30" as="geometry" />
        </mxCell>
        <mxCell id="lr75-girmY2DZmhZpHpu-12" value="" style="rounded=0;whiteSpace=wrap;html=1;fontSize=30;fillColor=#F3B7B8;" vertex="1" parent="1">
          <mxGeometry x="1988.3899999999999" y="188" width="30" height="30" as="geometry" />
        </mxCell>
        <mxCell id="lr75-girmY2DZmhZpHpu-13" value="" style="rounded=0;whiteSpace=wrap;html=1;fontSize=30;fillColor=#F3B7B8;" vertex="1" parent="1">
          <mxGeometry x="2028.3899999999999" y="188" width="30" height="30" as="geometry" />
        </mxCell>
        <mxCell id="lr75-girmY2DZmhZpHpu-14" value="..." style="text;html=1;strokeColor=none;fillColor=none;align=center;verticalAlign=middle;whiteSpace=wrap;rounded=0;fontSize=30;" vertex="1" parent="1">
          <mxGeometry x="1853.3899999999999" y="185.5" width="60" height="30" as="geometry" />
        </mxCell>
        <mxCell id="lr75-girmY2DZmhZpHpu-15" value="..." style="text;html=1;strokeColor=none;fillColor=none;align=center;verticalAlign=middle;whiteSpace=wrap;rounded=0;fontSize=30;" vertex="1" parent="1">
          <mxGeometry x="2138.39" y="183" width="60" height="30" as="geometry" />
        </mxCell>
        <mxCell id="lr75-girmY2DZmhZpHpu-16" value="" style="rounded=0;whiteSpace=wrap;html=1;fontSize=30;fillColor=#F4B183;" vertex="1" parent="1">
          <mxGeometry x="1905.37" y="188" width="30" height="30" as="geometry" />
        </mxCell>
        <mxCell id="lr75-girmY2DZmhZpHpu-17" value="" style="rounded=0;whiteSpace=wrap;html=1;fontSize=30;fillColor=#F4B183;" vertex="1" parent="1">
          <mxGeometry x="2190.99" y="188" width="30" height="30" as="geometry" />
        </mxCell>
        <mxCell id="lr75-girmY2DZmhZpHpu-18" value="r+1&amp;nbsp;" style="text;html=1;strokeColor=none;fillColor=none;align=center;verticalAlign=middle;whiteSpace=wrap;rounded=0;fontSize=30;" vertex="1" parent="1">
          <mxGeometry x="1807" y="250" width="70" height="30" as="geometry" />
        </mxCell>
        <mxCell id="lr75-girmY2DZmhZpHpu-37" value="" style="rounded=0;whiteSpace=wrap;html=1;fontSize=30;fillColor=#8FAADC;" vertex="1" parent="1">
          <mxGeometry x="2467.14" y="188" width="30" height="30" as="geometry" />
        </mxCell>
        <mxCell id="lr75-girmY2DZmhZpHpu-38" value="" style="rounded=0;whiteSpace=wrap;html=1;fontSize=30;fillColor=#8FAADC;" vertex="1" parent="1">
          <mxGeometry x="2507.14" y="188" width="30" height="30" as="geometry" />
        </mxCell>
        <mxCell id="lr75-girmY2DZmhZpHpu-45" value="..." style="text;html=1;strokeColor=none;fillColor=none;align=center;verticalAlign=middle;whiteSpace=wrap;rounded=0;fontSize=30;" vertex="1" parent="1">
          <mxGeometry x="2298.39" y="183" width="60" height="30" as="geometry" />
        </mxCell>
        <mxCell id="lr75-girmY2DZmhZpHpu-58" value="&lt;b&gt;&lt;font style=&quot;font-size: 60px;&quot;&gt;...&lt;/font&gt;&lt;/b&gt;" style="text;html=1;strokeColor=none;fillColor=none;align=center;verticalAlign=middle;whiteSpace=wrap;rounded=0;fontSize=30;" vertex="1" parent="1">
          <mxGeometry x="1993.9999999999998" y="448" width="60" height="30" as="geometry" />
        </mxCell>
        <mxCell id="lr75-girmY2DZmhZpHpu-64" value="..." style="text;html=1;strokeColor=none;fillColor=none;align=center;verticalAlign=middle;whiteSpace=wrap;rounded=0;fontSize=30;" vertex="1" parent="1">
          <mxGeometry x="2549.64" y="185.5" width="60" height="30" as="geometry" />
        </mxCell>
        <mxCell id="lr75-girmY2DZmhZpHpu-66" value="" style="rounded=0;whiteSpace=wrap;html=1;fontSize=30;fillColor=#9AC9DB;" vertex="1" parent="1">
          <mxGeometry x="1698.9999999999998" y="518" width="980" height="50" as="geometry" />
        </mxCell>
        <mxCell id="lr75-girmY2DZmhZpHpu-67" value="" style="rounded=0;whiteSpace=wrap;html=1;fontSize=30;fillColor=#8FAADC;" vertex="1" parent="1">
          <mxGeometry x="1708.9999999999998" y="528" width="30" height="30" as="geometry" />
        </mxCell>
        <mxCell id="lr75-girmY2DZmhZpHpu-68" value="" style="rounded=0;whiteSpace=wrap;html=1;fontSize=30;fillColor=#8FAADC;" vertex="1" parent="1">
          <mxGeometry x="1748.9999999999998" y="528" width="30" height="30" as="geometry" />
        </mxCell>
        <mxCell id="lr75-girmY2DZmhZpHpu-69" value="" style="rounded=0;whiteSpace=wrap;html=1;fontSize=30;fillColor=#8FAADC;" vertex="1" parent="1">
          <mxGeometry x="1788.9999999999998" y="528" width="30" height="30" as="geometry" />
        </mxCell>
        <mxCell id="lr75-girmY2DZmhZpHpu-70" value="" style="rounded=0;whiteSpace=wrap;html=1;fontSize=30;fillColor=#8FAADC;" vertex="1" parent="1">
          <mxGeometry x="1828.9999999999998" y="528" width="30" height="30" as="geometry" />
        </mxCell>
        <mxCell id="lr75-girmY2DZmhZpHpu-71" value="" style="rounded=0;whiteSpace=wrap;html=1;fontSize=30;fillColor=#8FAADC;" vertex="1" parent="1">
          <mxGeometry x="2164" y="528" width="30" height="30" as="geometry" />
        </mxCell>
        <mxCell id="lr75-girmY2DZmhZpHpu-72" value="" style="rounded=0;whiteSpace=wrap;html=1;fontSize=30;fillColor=#8FAADC;" vertex="1" parent="1">
          <mxGeometry x="2209" y="528" width="30" height="30" as="geometry" />
        </mxCell>
        <mxCell id="lr75-girmY2DZmhZpHpu-88" value="" style="rounded=0;whiteSpace=wrap;html=1;fontSize=30;fillColor=#9AC9DB;" vertex="1" parent="1">
          <mxGeometry x="1720.5" y="817.9999999999998" width="439.87" height="50" as="geometry" />
        </mxCell>
        <mxCell id="lr75-girmY2DZmhZpHpu-89" value="" style="rounded=0;whiteSpace=wrap;html=1;fontSize=30;fillColor=#F3B7B8;" vertex="1" parent="1">
          <mxGeometry x="1810.5" y="827.9999999999998" width="30" height="30" as="geometry" />
        </mxCell>
        <mxCell id="lr75-girmY2DZmhZpHpu-90" value="" style="rounded=0;whiteSpace=wrap;html=1;fontSize=30;fillColor=#F3B7B8;" vertex="1" parent="1">
          <mxGeometry x="1850.5" y="827.9999999999998" width="30" height="30" as="geometry" />
        </mxCell>
        <mxCell id="lr75-girmY2DZmhZpHpu-91" value="" style="rounded=0;whiteSpace=wrap;html=1;fontSize=30;fillColor=#F3B7B8;" vertex="1" parent="1">
          <mxGeometry x="1730.5" y="827.9999999999998" width="30" height="30" as="geometry" />
        </mxCell>
        <mxCell id="lr75-girmY2DZmhZpHpu-92" value="" style="rounded=0;whiteSpace=wrap;html=1;fontSize=30;fillColor=#F3B7B8;" vertex="1" parent="1">
          <mxGeometry x="1770.5" y="827.9999999999998" width="30" height="30" as="geometry" />
        </mxCell>
        <mxCell id="lr75-girmY2DZmhZpHpu-94" value="" style="endArrow=none;html=1;rounded=0;fontSize=30;entryX=0.975;entryY=0.965;entryDx=0;entryDy=0;entryPerimeter=0;" edge="1" parent="1">
          <mxGeometry width="50" height="50" relative="1" as="geometry">
            <mxPoint x="2149.37" y="899.9999999999998" as="sourcePoint" />
            <mxPoint x="2149.3732499999996" y="868.2499999999998" as="targetPoint" />
          </mxGeometry>
        </mxCell>
        <mxCell id="lr75-girmY2DZmhZpHpu-97" value="..." style="text;html=1;strokeColor=none;fillColor=none;align=center;verticalAlign=middle;whiteSpace=wrap;rounded=0;fontSize=30;" vertex="1" parent="1">
          <mxGeometry x="1870.5" y="825.4999999999998" width="60" height="30" as="geometry" />
        </mxCell>
        <mxCell id="lr75-girmY2DZmhZpHpu-98" value="" style="rounded=0;whiteSpace=wrap;html=1;fontSize=30;fillColor=#9AC9DB;" vertex="1" parent="1">
          <mxGeometry x="1721.15" y="1320.8200000000002" width="440" height="50" as="geometry" />
        </mxCell>
        <mxCell id="lr75-girmY2DZmhZpHpu-99" value="" style="rounded=0;whiteSpace=wrap;html=1;fontSize=30;fillColor=#8FAADC;" vertex="1" parent="1">
          <mxGeometry x="1731.15" y="1330.8200000000002" width="30" height="30" as="geometry" />
        </mxCell>
        <mxCell id="lr75-girmY2DZmhZpHpu-100" value="" style="rounded=0;whiteSpace=wrap;html=1;fontSize=30;fillColor=#8FAADC;" vertex="1" parent="1">
          <mxGeometry x="1771.15" y="1330.8200000000002" width="30" height="30" as="geometry" />
        </mxCell>
        <mxCell id="lr75-girmY2DZmhZpHpu-101" value="" style="rounded=0;whiteSpace=wrap;html=1;fontSize=30;fillColor=#8FAADC;" vertex="1" parent="1">
          <mxGeometry x="1811.15" y="1330.8200000000002" width="30" height="30" as="geometry" />
        </mxCell>
        <mxCell id="lr75-girmY2DZmhZpHpu-102" value="" style="rounded=0;whiteSpace=wrap;html=1;fontSize=30;fillColor=#8FAADC;" vertex="1" parent="1">
          <mxGeometry x="1851.15" y="1330.8200000000002" width="30" height="30" as="geometry" />
        </mxCell>
        <mxCell id="lr75-girmY2DZmhZpHpu-107" value="" style="endArrow=none;html=1;rounded=0;fontSize=30;" edge="1" parent="1">
          <mxGeometry width="50" height="50" relative="1" as="geometry">
            <mxPoint x="1731" y="897.9999999999998" as="sourcePoint" />
            <mxPoint x="1731" y="867.9999999999998" as="targetPoint" />
          </mxGeometry>
        </mxCell>
        <mxCell id="lr75-girmY2DZmhZpHpu-108" value="" style="endArrow=classic;html=1;rounded=0;fontSize=30;" edge="1" parent="1">
          <mxGeometry width="50" height="50" relative="1" as="geometry">
            <mxPoint x="1904.12" y="877.9999999999998" as="sourcePoint" />
            <mxPoint x="1730.37" y="877.9999999999998" as="targetPoint" />
          </mxGeometry>
        </mxCell>
        <mxCell id="lr75-girmY2DZmhZpHpu-109" value="" style="endArrow=classic;html=1;rounded=0;fontSize=30;" edge="1" parent="1">
          <mxGeometry width="50" height="50" relative="1" as="geometry">
            <mxPoint x="1960.37" y="877.9999999999998" as="sourcePoint" />
            <mxPoint x="2150.37" y="877.9999999999998" as="targetPoint" />
          </mxGeometry>
        </mxCell>
        <mxCell id="lr75-girmY2DZmhZpHpu-110" value="d-1" style="text;html=1;strokeColor=none;fillColor=none;align=center;verticalAlign=middle;whiteSpace=wrap;rounded=0;fontSize=30;" vertex="1" parent="1">
          <mxGeometry x="1902.25" y="867.9999999999998" width="53.75" height="30" as="geometry" />
        </mxCell>
        <mxCell id="lr75-girmY2DZmhZpHpu-111" value="" style="rounded=0;whiteSpace=wrap;html=1;fontSize=30;fillColor=#9AC9DB;" vertex="1" parent="1">
          <mxGeometry x="1721.1299999999999" y="1140.8200000000002" width="439.39" height="50" as="geometry" />
        </mxCell>
        <mxCell id="lr75-girmY2DZmhZpHpu-112" value="" style="rounded=0;whiteSpace=wrap;html=1;fontSize=30;fillColor=#F4B183;" vertex="1" parent="1">
          <mxGeometry x="2121" y="1153.0000000000002" width="30" height="30" as="geometry" />
        </mxCell>
        <mxCell id="lr75-girmY2DZmhZpHpu-113" value="" style="rounded=0;whiteSpace=wrap;html=1;fontSize=30;fillColor=#F3B7B8;" vertex="1" parent="1">
          <mxGeometry x="1729.8799999999999" y="1150.8200000000002" width="30" height="30" as="geometry" />
        </mxCell>
        <mxCell id="lr75-girmY2DZmhZpHpu-114" value="..." style="text;html=1;strokeColor=none;fillColor=none;align=center;verticalAlign=middle;whiteSpace=wrap;rounded=0;fontSize=30;" vertex="1" parent="1">
          <mxGeometry x="1750.65" y="1150.8200000000002" width="60" height="30" as="geometry" />
        </mxCell>
        <mxCell id="lr75-girmY2DZmhZpHpu-115" value="" style="endArrow=none;html=1;rounded=0;fontSize=30;" edge="1" parent="1">
          <mxGeometry width="50" height="50" relative="1" as="geometry">
            <mxPoint x="1730.12" y="1220.8200000000002" as="sourcePoint" />
            <mxPoint x="1730.25" y="1190.8200000000002" as="targetPoint" />
          </mxGeometry>
        </mxCell>
        <mxCell id="lr75-girmY2DZmhZpHpu-116" value="" style="endArrow=classic;html=1;rounded=0;fontSize=30;" edge="1" parent="1">
          <mxGeometry width="50" height="50" relative="1" as="geometry">
            <mxPoint x="2228.99" y="1210.8200000000002" as="sourcePoint" />
            <mxPoint x="2208.3500000000004" y="1210.8200000000002" as="targetPoint" />
          </mxGeometry>
        </mxCell>
        <mxCell id="lr75-girmY2DZmhZpHpu-117" value="" style="endArrow=classic;html=1;rounded=0;fontSize=30;" edge="1" parent="1">
          <mxGeometry width="50" height="50" relative="1" as="geometry">
            <mxPoint x="1827.75" y="1210.8200000000002" as="sourcePoint" />
            <mxPoint x="1849.62" y="1210.8200000000002" as="targetPoint" />
          </mxGeometry>
        </mxCell>
        <mxCell id="lr75-girmY2DZmhZpHpu-118" value="&lt;font style=&quot;font-size: 20px;&quot;&gt;r%(d-1)&lt;/font&gt;" style="text;html=1;strokeColor=none;fillColor=none;align=center;verticalAlign=middle;whiteSpace=wrap;rounded=0;fontSize=30;" vertex="1" parent="1">
          <mxGeometry x="1747.14" y="1192.0700000000002" width="86.25" height="30" as="geometry" />
        </mxCell>
        <mxCell id="lr75-girmY2DZmhZpHpu-120" value="" style="rounded=0;whiteSpace=wrap;html=1;fontSize=30;fillColor=#F3B7B8;" vertex="1" parent="1">
          <mxGeometry x="1810.65" y="1152.0700000000002" width="30" height="30" as="geometry" />
        </mxCell>
        <mxCell id="lr75-girmY2DZmhZpHpu-121" value="" style="rounded=0;whiteSpace=wrap;html=1;fontSize=30;fillColor=#F4B183;" vertex="1" parent="1">
          <mxGeometry x="2061" y="1153.0000000000002" width="30" height="30" as="geometry" />
        </mxCell>
        <mxCell id="lr75-girmY2DZmhZpHpu-122" value="" style="rounded=0;whiteSpace=wrap;html=1;fontSize=30;fillColor=#9AC9DB;" vertex="1" parent="1">
          <mxGeometry x="2199.12" y="817.9999999999998" width="439.87" height="50" as="geometry" />
        </mxCell>
        <mxCell id="lr75-girmY2DZmhZpHpu-123" value="" style="rounded=0;whiteSpace=wrap;html=1;fontSize=30;fillColor=#F3B7B8;" vertex="1" parent="1">
          <mxGeometry x="2289.12" y="827.9999999999998" width="30" height="30" as="geometry" />
        </mxCell>
        <mxCell id="lr75-girmY2DZmhZpHpu-124" value="" style="rounded=0;whiteSpace=wrap;html=1;fontSize=30;fillColor=#F3B7B8;" vertex="1" parent="1">
          <mxGeometry x="2329.12" y="827.9999999999998" width="30" height="30" as="geometry" />
        </mxCell>
        <mxCell id="lr75-girmY2DZmhZpHpu-125" value="" style="rounded=0;whiteSpace=wrap;html=1;fontSize=30;fillColor=#F3B7B8;" vertex="1" parent="1">
          <mxGeometry x="2209.12" y="827.9999999999998" width="30" height="30" as="geometry" />
        </mxCell>
        <mxCell id="lr75-girmY2DZmhZpHpu-126" value="" style="rounded=0;whiteSpace=wrap;html=1;fontSize=30;fillColor=#F3B7B8;" vertex="1" parent="1">
          <mxGeometry x="2249.12" y="827.9999999999998" width="30" height="30" as="geometry" />
        </mxCell>
        <mxCell id="lr75-girmY2DZmhZpHpu-127" value="..." style="text;html=1;strokeColor=none;fillColor=none;align=center;verticalAlign=middle;whiteSpace=wrap;rounded=0;fontSize=30;" vertex="1" parent="1">
          <mxGeometry x="2349.12" y="825.4999999999998" width="60" height="30" as="geometry" />
        </mxCell>
        <mxCell id="lr75-girmY2DZmhZpHpu-130" value="" style="rounded=0;whiteSpace=wrap;html=1;fontSize=30;fillColor=#9AC9DB;" vertex="1" parent="1">
          <mxGeometry x="1720.5" y="958" width="439.87" height="50" as="geometry" />
        </mxCell>
        <mxCell id="lr75-girmY2DZmhZpHpu-131" value="" style="rounded=0;whiteSpace=wrap;html=1;fontSize=30;fillColor=#F3B7B8;" vertex="1" parent="1">
          <mxGeometry x="1810.5" y="968" width="30" height="30" as="geometry" />
        </mxCell>
        <mxCell id="lr75-girmY2DZmhZpHpu-132" value="" style="rounded=0;whiteSpace=wrap;html=1;fontSize=30;fillColor=#F3B7B8;" vertex="1" parent="1">
          <mxGeometry x="1850.5" y="968" width="30" height="30" as="geometry" />
        </mxCell>
        <mxCell id="lr75-girmY2DZmhZpHpu-133" value="" style="rounded=0;whiteSpace=wrap;html=1;fontSize=30;fillColor=#F3B7B8;" vertex="1" parent="1">
          <mxGeometry x="1730.5" y="968" width="30" height="30" as="geometry" />
        </mxCell>
        <mxCell id="lr75-girmY2DZmhZpHpu-134" value="" style="rounded=0;whiteSpace=wrap;html=1;fontSize=30;fillColor=#F3B7B8;" vertex="1" parent="1">
          <mxGeometry x="1770.5" y="968" width="30" height="30" as="geometry" />
        </mxCell>
        <mxCell id="lr75-girmY2DZmhZpHpu-136" value="" style="endArrow=none;html=1;rounded=0;fontSize=30;entryX=0.975;entryY=0.965;entryDx=0;entryDy=0;entryPerimeter=0;" edge="1" parent="1">
          <mxGeometry width="50" height="50" relative="1" as="geometry">
            <mxPoint x="2149.37" y="1040" as="sourcePoint" />
            <mxPoint x="2149.3732499999996" y="1008.25" as="targetPoint" />
          </mxGeometry>
        </mxCell>
        <mxCell id="lr75-girmY2DZmhZpHpu-139" value="..." style="text;html=1;strokeColor=none;fillColor=none;align=center;verticalAlign=middle;whiteSpace=wrap;rounded=0;fontSize=30;" vertex="1" parent="1">
          <mxGeometry x="1870.5" y="965.5" width="60" height="30" as="geometry" />
        </mxCell>
        <mxCell id="lr75-girmY2DZmhZpHpu-140" value="" style="endArrow=none;html=1;rounded=0;fontSize=30;" edge="1" parent="1">
          <mxGeometry width="50" height="50" relative="1" as="geometry">
            <mxPoint x="1731" y="1038" as="sourcePoint" />
            <mxPoint x="1731" y="1008" as="targetPoint" />
          </mxGeometry>
        </mxCell>
        <mxCell id="lr75-girmY2DZmhZpHpu-141" value="" style="endArrow=classic;html=1;rounded=0;fontSize=30;" edge="1" parent="1">
          <mxGeometry width="50" height="50" relative="1" as="geometry">
            <mxPoint x="1904.12" y="1018" as="sourcePoint" />
            <mxPoint x="1730.37" y="1018" as="targetPoint" />
          </mxGeometry>
        </mxCell>
        <mxCell id="lr75-girmY2DZmhZpHpu-142" value="" style="endArrow=classic;html=1;rounded=0;fontSize=30;" edge="1" parent="1">
          <mxGeometry width="50" height="50" relative="1" as="geometry">
            <mxPoint x="1960.37" y="1018" as="sourcePoint" />
            <mxPoint x="2150.37" y="1018" as="targetPoint" />
          </mxGeometry>
        </mxCell>
        <mxCell id="lr75-girmY2DZmhZpHpu-143" value="d-1" style="text;html=1;strokeColor=none;fillColor=none;align=center;verticalAlign=middle;whiteSpace=wrap;rounded=0;fontSize=30;" vertex="1" parent="1">
          <mxGeometry x="1902.25" y="1008" width="53.75" height="30" as="geometry" />
        </mxCell>
        <mxCell id="lr75-girmY2DZmhZpHpu-144" value="" style="rounded=0;whiteSpace=wrap;html=1;fontSize=30;fillColor=#9AC9DB;" vertex="1" parent="1">
          <mxGeometry x="2199.12" y="958" width="439.87" height="50" as="geometry" />
        </mxCell>
        <mxCell id="lr75-girmY2DZmhZpHpu-145" value="" style="rounded=0;whiteSpace=wrap;html=1;fontSize=30;fillColor=#F3B7B8;" vertex="1" parent="1">
          <mxGeometry x="2289.12" y="968" width="30" height="30" as="geometry" />
        </mxCell>
        <mxCell id="lr75-girmY2DZmhZpHpu-146" value="" style="rounded=0;whiteSpace=wrap;html=1;fontSize=30;fillColor=#F3B7B8;" vertex="1" parent="1">
          <mxGeometry x="2329.12" y="968" width="30" height="30" as="geometry" />
        </mxCell>
        <mxCell id="lr75-girmY2DZmhZpHpu-147" value="" style="rounded=0;whiteSpace=wrap;html=1;fontSize=30;fillColor=#F3B7B8;" vertex="1" parent="1">
          <mxGeometry x="2209.12" y="968" width="30" height="30" as="geometry" />
        </mxCell>
        <mxCell id="lr75-girmY2DZmhZpHpu-148" value="" style="rounded=0;whiteSpace=wrap;html=1;fontSize=30;fillColor=#F3B7B8;" vertex="1" parent="1">
          <mxGeometry x="2249.12" y="968" width="30" height="30" as="geometry" />
        </mxCell>
        <mxCell id="lr75-girmY2DZmhZpHpu-149" value="..." style="text;html=1;strokeColor=none;fillColor=none;align=center;verticalAlign=middle;whiteSpace=wrap;rounded=0;fontSize=30;" vertex="1" parent="1">
          <mxGeometry x="2349.12" y="965.5" width="60" height="30" as="geometry" />
        </mxCell>
        <mxCell id="lr75-girmY2DZmhZpHpu-152" value="..." style="text;html=1;strokeColor=none;fillColor=none;align=center;verticalAlign=middle;whiteSpace=wrap;rounded=0;fontSize=30;" vertex="1" parent="1">
          <mxGeometry x="1945.41" y="1153.3200000000002" width="60" height="30" as="geometry" />
        </mxCell>
        <mxCell id="lr75-girmY2DZmhZpHpu-153" value="..." style="text;html=1;strokeColor=none;fillColor=none;align=center;verticalAlign=middle;whiteSpace=wrap;rounded=0;fontSize=30;" vertex="1" parent="1">
          <mxGeometry x="2076.41" y="1153.0000000000002" width="60" height="30" as="geometry" />
        </mxCell>
        <mxCell id="lr75-girmY2DZmhZpHpu-156" value="" style="rounded=0;whiteSpace=wrap;html=1;fontSize=30;fillColor=#F3B7B8;" vertex="1" parent="1">
          <mxGeometry x="1850.52" y="1152.0700000000002" width="30" height="30" as="geometry" />
        </mxCell>
        <mxCell id="lr75-girmY2DZmhZpHpu-157" value="..." style="text;html=1;strokeColor=none;fillColor=none;align=center;verticalAlign=middle;whiteSpace=wrap;rounded=0;fontSize=30;" vertex="1" parent="1">
          <mxGeometry x="1871.29" y="1152.0700000000002" width="60" height="30" as="geometry" />
        </mxCell>
        <mxCell id="lr75-girmY2DZmhZpHpu-158" value="" style="endArrow=none;html=1;rounded=0;fontSize=30;" edge="1" parent="1">
          <mxGeometry width="50" height="50" relative="1" as="geometry">
            <mxPoint x="1850.7599999999998" y="1222.0700000000002" as="sourcePoint" />
            <mxPoint x="1850.8899999999999" y="1192.0700000000002" as="targetPoint" />
          </mxGeometry>
        </mxCell>
        <mxCell id="lr75-girmY2DZmhZpHpu-159" value="" style="endArrow=classic;html=1;rounded=0;fontSize=30;" edge="1" parent="1">
          <mxGeometry width="50" height="50" relative="1" as="geometry">
            <mxPoint x="1871.1599999999999" y="1212.0700000000002" as="sourcePoint" />
            <mxPoint x="1850.52" y="1212.0700000000002" as="targetPoint" />
          </mxGeometry>
        </mxCell>
        <mxCell id="lr75-girmY2DZmhZpHpu-160" value="" style="endArrow=classic;html=1;rounded=0;fontSize=30;" edge="1" parent="1">
          <mxGeometry width="50" height="50" relative="1" as="geometry">
            <mxPoint x="1938.3900000000003" y="1212.0700000000002" as="sourcePoint" />
            <mxPoint x="1960.2599999999998" y="1212.0700000000002" as="targetPoint" />
          </mxGeometry>
        </mxCell>
        <mxCell id="lr75-girmY2DZmhZpHpu-161" value="&lt;font style=&quot;font-size: 20px;&quot;&gt;r%(d-1)&lt;/font&gt;" style="text;html=1;strokeColor=none;fillColor=none;align=center;verticalAlign=middle;whiteSpace=wrap;rounded=0;fontSize=30;" vertex="1" parent="1">
          <mxGeometry x="1863.16" y="1193.3200000000002" width="86.25" height="30" as="geometry" />
        </mxCell>
        <mxCell id="lr75-girmY2DZmhZpHpu-162" value="" style="endArrow=none;html=1;rounded=0;fontSize=30;" edge="1" parent="1">
          <mxGeometry width="50" height="50" relative="1" as="geometry">
            <mxPoint x="1960.8900000000003" y="1222.0700000000002" as="sourcePoint" />
            <mxPoint x="1960.8900000000003" y="1192.0700000000002" as="targetPoint" />
          </mxGeometry>
        </mxCell>
        <mxCell id="lr75-girmY2DZmhZpHpu-163" value="" style="rounded=0;whiteSpace=wrap;html=1;fontSize=30;fillColor=#F3B7B8;" vertex="1" parent="1">
          <mxGeometry x="1931.29" y="1153.3200000000002" width="30" height="30" as="geometry" />
        </mxCell>
        <mxCell id="lr75-girmY2DZmhZpHpu-167" value="&lt;b&gt;&lt;font style=&quot;font-size: 60px;&quot;&gt;...&lt;/font&gt;&lt;/b&gt;" style="text;html=1;strokeColor=none;fillColor=none;align=center;verticalAlign=middle;whiteSpace=wrap;rounded=0;fontSize=30;" vertex="1" parent="1">
          <mxGeometry x="2140" y="1060.8200000000002" width="60" height="30" as="geometry" />
        </mxCell>
        <mxCell id="lr75-girmY2DZmhZpHpu-168" value="" style="rounded=0;whiteSpace=wrap;html=1;fontSize=30;fillColor=#8FAADC;" vertex="1" parent="1">
          <mxGeometry x="1996" y="1153.3200000000002" width="30" height="30" as="geometry" />
        </mxCell>
        <mxCell id="lr75-girmY2DZmhZpHpu-169" value="..." style="text;html=1;strokeColor=none;fillColor=none;align=center;verticalAlign=middle;whiteSpace=wrap;rounded=0;fontSize=30;" vertex="1" parent="1">
          <mxGeometry x="2013.8" y="1153.3200000000002" width="60" height="30" as="geometry" />
        </mxCell>
        <mxCell id="lr75-girmY2DZmhZpHpu-171" value="" style="endArrow=classic;html=1;rounded=0;fontSize=30;" edge="1" parent="1">
          <mxGeometry width="50" height="50" relative="1" as="geometry">
            <mxPoint x="1911" y="1236.57" as="sourcePoint" />
            <mxPoint x="1723.9999999999995" y="1236.89" as="targetPoint" />
          </mxGeometry>
        </mxCell>
        <mxCell id="lr75-girmY2DZmhZpHpu-172" value="&amp;nbsp;g" style="text;html=1;strokeColor=none;fillColor=none;align=center;verticalAlign=middle;whiteSpace=wrap;rounded=0;fontSize=30;" vertex="1" parent="1">
          <mxGeometry x="1902.2499999999998" y="1222.0700000000002" width="36.25" height="30" as="geometry" />
        </mxCell>
        <mxCell id="lr75-girmY2DZmhZpHpu-173" value="" style="rounded=0;whiteSpace=wrap;html=1;fontSize=30;fillColor=#9AC9DB;" vertex="1" parent="1">
          <mxGeometry x="2199.6" y="1140.8200000000002" width="439.39" height="50" as="geometry" />
        </mxCell>
        <mxCell id="lr75-girmY2DZmhZpHpu-174" value="" style="rounded=0;whiteSpace=wrap;html=1;fontSize=30;fillColor=#F3B7B8;" vertex="1" parent="1">
          <mxGeometry x="2208.35" y="1150.8200000000002" width="30" height="30" as="geometry" />
        </mxCell>
        <mxCell id="lr75-girmY2DZmhZpHpu-175" value="..." style="text;html=1;strokeColor=none;fillColor=none;align=center;verticalAlign=middle;whiteSpace=wrap;rounded=0;fontSize=30;" vertex="1" parent="1">
          <mxGeometry x="2229.12" y="1150.8200000000002" width="60" height="30" as="geometry" />
        </mxCell>
        <mxCell id="lr75-girmY2DZmhZpHpu-176" value="" style="endArrow=none;html=1;rounded=0;fontSize=30;" edge="1" parent="1">
          <mxGeometry width="50" height="50" relative="1" as="geometry">
            <mxPoint x="2208.59" y="1220.8200000000002" as="sourcePoint" />
            <mxPoint x="2208.7200000000003" y="1190.8200000000002" as="targetPoint" />
          </mxGeometry>
        </mxCell>
        <mxCell id="lr75-girmY2DZmhZpHpu-179" value="&lt;font style=&quot;font-size: 20px;&quot;&gt;r%(d-1)&lt;/font&gt;" style="text;html=1;strokeColor=none;fillColor=none;align=center;verticalAlign=middle;whiteSpace=wrap;rounded=0;fontSize=30;" vertex="1" parent="1">
          <mxGeometry x="2220.99" y="1192.0700000000002" width="86.25" height="30" as="geometry" />
        </mxCell>
        <mxCell id="lr75-girmY2DZmhZpHpu-180" value="" style="endArrow=none;html=1;rounded=0;fontSize=30;" edge="1" parent="1">
          <mxGeometry width="50" height="50" relative="1" as="geometry">
            <mxPoint x="2318.7200000000003" y="1220.8200000000002" as="sourcePoint" />
            <mxPoint x="2318.7200000000003" y="1190.8200000000002" as="targetPoint" />
          </mxGeometry>
        </mxCell>
        <mxCell id="lr75-girmY2DZmhZpHpu-181" value="" style="rounded=0;whiteSpace=wrap;html=1;fontSize=30;fillColor=#F3B7B8;" vertex="1" parent="1">
          <mxGeometry x="2289.12" y="1152.0700000000002" width="30" height="30" as="geometry" />
        </mxCell>
        <mxCell id="lr75-girmY2DZmhZpHpu-182" value="" style="rounded=0;whiteSpace=wrap;html=1;fontSize=30;fillColor=#F4B183;" vertex="1" parent="1">
          <mxGeometry x="2595.9999999999995" y="1155.5000000000002" width="30" height="30" as="geometry" />
        </mxCell>
        <mxCell id="lr75-girmY2DZmhZpHpu-183" value="..." style="text;html=1;strokeColor=none;fillColor=none;align=center;verticalAlign=middle;whiteSpace=wrap;rounded=0;fontSize=30;" vertex="1" parent="1">
          <mxGeometry x="2319.12" y="1152.0700000000002" width="60" height="30" as="geometry" />
        </mxCell>
        <mxCell id="lr75-girmY2DZmhZpHpu-184" value="" style="endArrow=none;html=1;rounded=0;fontSize=30;" edge="1" parent="1">
          <mxGeometry width="50" height="50" relative="1" as="geometry">
            <mxPoint x="1719.5" y="1240.8200000000002" as="sourcePoint" />
            <mxPoint x="1720.1099999999997" y="1192.0700000000002" as="targetPoint" />
          </mxGeometry>
        </mxCell>
        <mxCell id="lr75-girmY2DZmhZpHpu-185" value="" style="endArrow=none;html=1;rounded=0;fontSize=30;" edge="1" parent="1">
          <mxGeometry width="50" height="50" relative="1" as="geometry">
            <mxPoint x="2038.9999999999998" y="1242.0700000000002" as="sourcePoint" />
            <mxPoint x="2038.9999999999998" y="1192.0700000000002" as="targetPoint" />
          </mxGeometry>
        </mxCell>
        <mxCell id="lr75-girmY2DZmhZpHpu-186" value="" style="rounded=0;whiteSpace=wrap;html=1;fontSize=30;fillColor=#8FAADC;" vertex="1" parent="1">
          <mxGeometry x="2554.09" y="1155.5000000000002" width="30" height="30" as="geometry" />
        </mxCell>
        <mxCell id="lr75-girmY2DZmhZpHpu-187" value="" style="endArrow=classic;html=1;rounded=0;fontSize=30;" edge="1" parent="1">
          <mxGeometry width="50" height="50" relative="1" as="geometry">
            <mxPoint x="1940" y="1237" as="sourcePoint" />
            <mxPoint x="2039" y="1237" as="targetPoint" />
          </mxGeometry>
        </mxCell>
        <mxCell id="lr75-girmY2DZmhZpHpu-188" value="" style="rounded=0;whiteSpace=wrap;html=1;fontSize=30;fillColor=#8FAADC;" vertex="1" parent="1">
          <mxGeometry x="2511.94" y="1155.5000000000002" width="30" height="30" as="geometry" />
        </mxCell>
        <mxCell id="lr75-girmY2DZmhZpHpu-189" value="" style="rounded=0;whiteSpace=wrap;html=1;fontSize=30;fillColor=#8FAADC;" vertex="1" parent="1">
          <mxGeometry x="2380.23" y="1153.0000000000002" width="30" height="30" as="geometry" />
        </mxCell>
        <mxCell id="lr75-girmY2DZmhZpHpu-190" value="..." style="text;html=1;strokeColor=none;fillColor=none;align=center;verticalAlign=middle;whiteSpace=wrap;rounded=0;fontSize=30;" vertex="1" parent="1">
          <mxGeometry x="2422.1099999999997" y="1153.0000000000002" width="60" height="30" as="geometry" />
        </mxCell>
        <mxCell id="lr75-girmY2DZmhZpHpu-191" value="&lt;b&gt;&lt;font style=&quot;font-size: 60px;&quot;&gt;...&lt;/font&gt;&lt;/b&gt;" style="text;html=1;strokeColor=none;fillColor=none;align=center;verticalAlign=middle;whiteSpace=wrap;rounded=0;fontSize=30;" vertex="1" parent="1">
          <mxGeometry x="2121" y="1269.0000000000002" width="60" height="30" as="geometry" />
        </mxCell>
        <mxCell id="lr75-girmY2DZmhZpHpu-192" value="" style="endArrow=none;html=1;rounded=0;fontSize=30;entryX=0.975;entryY=0.965;entryDx=0;entryDy=0;entryPerimeter=0;" edge="1" parent="1">
          <mxGeometry width="50" height="50" relative="1" as="geometry">
            <mxPoint x="2627.35" y="898.9999999999998" as="sourcePoint" />
            <mxPoint x="2627.3532499999997" y="867.2499999999998" as="targetPoint" />
          </mxGeometry>
        </mxCell>
        <mxCell id="lr75-girmY2DZmhZpHpu-193" value="" style="endArrow=none;html=1;rounded=0;fontSize=30;" edge="1" parent="1">
          <mxGeometry width="50" height="50" relative="1" as="geometry">
            <mxPoint x="2208.98" y="896.9999999999998" as="sourcePoint" />
            <mxPoint x="2208.98" y="866.9999999999998" as="targetPoint" />
          </mxGeometry>
        </mxCell>
        <mxCell id="lr75-girmY2DZmhZpHpu-194" value="" style="endArrow=classic;html=1;rounded=0;fontSize=30;" edge="1" parent="1">
          <mxGeometry width="50" height="50" relative="1" as="geometry">
            <mxPoint x="2382.1" y="876.9999999999998" as="sourcePoint" />
            <mxPoint x="2208.35" y="876.9999999999998" as="targetPoint" />
          </mxGeometry>
        </mxCell>
        <mxCell id="lr75-girmY2DZmhZpHpu-195" value="" style="endArrow=classic;html=1;rounded=0;fontSize=30;" edge="1" parent="1">
          <mxGeometry width="50" height="50" relative="1" as="geometry">
            <mxPoint x="2438.35" y="876.9999999999998" as="sourcePoint" />
            <mxPoint x="2628.35" y="876.9999999999998" as="targetPoint" />
          </mxGeometry>
        </mxCell>
        <mxCell id="lr75-girmY2DZmhZpHpu-196" value="d-1" style="text;html=1;strokeColor=none;fillColor=none;align=center;verticalAlign=middle;whiteSpace=wrap;rounded=0;fontSize=30;" vertex="1" parent="1">
          <mxGeometry x="2380.23" y="866.9999999999998" width="53.75" height="30" as="geometry" />
        </mxCell>
        <mxCell id="lr75-girmY2DZmhZpHpu-197" value="" style="endArrow=none;html=1;rounded=0;fontSize=30;entryX=0.975;entryY=0.965;entryDx=0;entryDy=0;entryPerimeter=0;" edge="1" parent="1">
          <mxGeometry width="50" height="50" relative="1" as="geometry">
            <mxPoint x="2623" y="1039.9999999999998" as="sourcePoint" />
            <mxPoint x="2623.0032499999998" y="1008.2499999999998" as="targetPoint" />
          </mxGeometry>
        </mxCell>
        <mxCell id="lr75-girmY2DZmhZpHpu-198" value="" style="endArrow=none;html=1;rounded=0;fontSize=30;" edge="1" parent="1">
          <mxGeometry width="50" height="50" relative="1" as="geometry">
            <mxPoint x="2204.63" y="1037.9999999999998" as="sourcePoint" />
            <mxPoint x="2204.63" y="1007.9999999999998" as="targetPoint" />
          </mxGeometry>
        </mxCell>
        <mxCell id="lr75-girmY2DZmhZpHpu-199" value="" style="endArrow=classic;html=1;rounded=0;fontSize=30;" edge="1" parent="1">
          <mxGeometry width="50" height="50" relative="1" as="geometry">
            <mxPoint x="2377.75" y="1017.9999999999998" as="sourcePoint" />
            <mxPoint x="2204" y="1017.9999999999998" as="targetPoint" />
          </mxGeometry>
        </mxCell>
        <mxCell id="lr75-girmY2DZmhZpHpu-200" value="" style="endArrow=classic;html=1;rounded=0;fontSize=30;" edge="1" parent="1">
          <mxGeometry width="50" height="50" relative="1" as="geometry">
            <mxPoint x="2434" y="1017.9999999999998" as="sourcePoint" />
            <mxPoint x="2624" y="1017.9999999999998" as="targetPoint" />
          </mxGeometry>
        </mxCell>
        <mxCell id="lr75-girmY2DZmhZpHpu-201" value="d-1" style="text;html=1;strokeColor=none;fillColor=none;align=center;verticalAlign=middle;whiteSpace=wrap;rounded=0;fontSize=30;" vertex="1" parent="1">
          <mxGeometry x="2375.88" y="1007.9999999999998" width="53.75" height="30" as="geometry" />
        </mxCell>
        <mxCell id="lr75-girmY2DZmhZpHpu-205" value="" style="endArrow=classic;html=1;rounded=0;fontSize=30;" edge="1" parent="1">
          <mxGeometry width="50" height="50" relative="1" as="geometry">
            <mxPoint x="1750.52" y="1209.8200000000002" as="sourcePoint" />
            <mxPoint x="1729.88" y="1209.8200000000002" as="targetPoint" />
          </mxGeometry>
        </mxCell>
        <mxCell id="lr75-girmY2DZmhZpHpu-206" value="" style="endArrow=classic;html=1;rounded=0;fontSize=30;" edge="1" parent="1">
          <mxGeometry width="50" height="50" relative="1" as="geometry">
            <mxPoint x="2297.25" y="1212.0000000000002" as="sourcePoint" />
            <mxPoint x="2319.12" y="1212.0000000000002" as="targetPoint" />
          </mxGeometry>
        </mxCell>
        <mxCell id="lr75-girmY2DZmhZpHpu-208" value="" style="endArrow=classic;html=1;rounded=0;fontSize=30;" edge="1" parent="1">
          <mxGeometry width="50" height="50" relative="1" as="geometry">
            <mxPoint x="2399.64" y="1242.5" as="sourcePoint" />
            <mxPoint x="2212.6399999999994" y="1242.8200000000002" as="targetPoint" />
          </mxGeometry>
        </mxCell>
        <mxCell id="lr75-girmY2DZmhZpHpu-209" value="&amp;nbsp;g" style="text;html=1;strokeColor=none;fillColor=none;align=center;verticalAlign=middle;whiteSpace=wrap;rounded=0;fontSize=30;" vertex="1" parent="1">
          <mxGeometry x="2390.89" y="1228.0000000000002" width="36.25" height="30" as="geometry" />
        </mxCell>
        <mxCell id="lr75-girmY2DZmhZpHpu-210" value="" style="endArrow=none;html=1;rounded=0;fontSize=30;" edge="1" parent="1">
          <mxGeometry width="50" height="50" relative="1" as="geometry">
            <mxPoint x="2208.14" y="1246.7500000000002" as="sourcePoint" />
            <mxPoint x="2208.7499999999995" y="1198.0000000000002" as="targetPoint" />
          </mxGeometry>
        </mxCell>
        <mxCell id="lr75-girmY2DZmhZpHpu-211" value="" style="endArrow=none;html=1;rounded=0;fontSize=30;" edge="1" parent="1">
          <mxGeometry width="50" height="50" relative="1" as="geometry">
            <mxPoint x="2587" y="1243.3200000000002" as="sourcePoint" />
            <mxPoint x="2587" y="1193.3200000000002" as="targetPoint" />
          </mxGeometry>
        </mxCell>
        <mxCell id="lr75-girmY2DZmhZpHpu-212" value="" style="endArrow=classic;html=1;rounded=0;fontSize=30;" edge="1" parent="1">
          <mxGeometry width="50" height="50" relative="1" as="geometry">
            <mxPoint x="2428.64" y="1242.93" as="sourcePoint" />
            <mxPoint x="2587" y="1243" as="targetPoint" />
          </mxGeometry>
        </mxCell>
        <mxCell id="lr75-girmY2DZmhZpHpu-213" value="" style="endArrow=none;html=1;rounded=0;fontSize=30;" edge="1" parent="1">
          <mxGeometry width="50" height="50" relative="1" as="geometry">
            <mxPoint x="1987.59" y="299" as="sourcePoint" />
            <mxPoint x="1987.59" y="239" as="targetPoint" />
          </mxGeometry>
        </mxCell>
        <mxCell id="lr75-girmY2DZmhZpHpu-214" value="" style="endArrow=none;html=1;rounded=0;fontSize=30;" edge="1" parent="1">
          <mxGeometry width="50" height="50" relative="1" as="geometry">
            <mxPoint x="2219.99" y="291" as="sourcePoint" />
            <mxPoint x="2219.99" y="231" as="targetPoint" />
          </mxGeometry>
        </mxCell>
        <mxCell id="lr75-girmY2DZmhZpHpu-215" value="" style="endArrow=classic;html=1;rounded=0;fontSize=30;" edge="1" parent="1">
          <mxGeometry width="50" height="50" relative="1" as="geometry">
            <mxPoint x="2141.2" y="269" as="sourcePoint" />
            <mxPoint x="2213.2" y="269" as="targetPoint" />
          </mxGeometry>
        </mxCell>
        <mxCell id="lr75-girmY2DZmhZpHpu-216" value="" style="endArrow=classic;html=1;rounded=0;fontSize=30;" edge="1" parent="1">
          <mxGeometry width="50" height="50" relative="1" as="geometry">
            <mxPoint x="2081.2" y="269" as="sourcePoint" />
            <mxPoint x="1997.59" y="269" as="targetPoint" />
          </mxGeometry>
        </mxCell>
        <mxCell id="lr75-girmY2DZmhZpHpu-217" value="r+1&amp;nbsp;" style="text;html=1;strokeColor=none;fillColor=none;align=center;verticalAlign=middle;whiteSpace=wrap;rounded=0;fontSize=30;" vertex="1" parent="1">
          <mxGeometry x="2081.2" y="251" width="70" height="30" as="geometry" />
        </mxCell>
        <mxCell id="lr75-girmY2DZmhZpHpu-218" value="" style="rounded=0;whiteSpace=wrap;html=1;fontSize=30;fillColor=#9AC9DB;" vertex="1" parent="1">
          <mxGeometry x="1698.9999999999998" y="341" width="980" height="50" as="geometry" />
        </mxCell>
        <mxCell id="lr75-girmY2DZmhZpHpu-219" value="" style="rounded=0;whiteSpace=wrap;html=1;fontSize=30;fillColor=#F3B7B8;" vertex="1" parent="1">
          <mxGeometry x="1788.9999999999998" y="351" width="30" height="30" as="geometry" />
        </mxCell>
        <mxCell id="lr75-girmY2DZmhZpHpu-220" value="" style="rounded=0;whiteSpace=wrap;html=1;fontSize=30;fillColor=#F3B7B8;" vertex="1" parent="1">
          <mxGeometry x="1828.9999999999998" y="351" width="30" height="30" as="geometry" />
        </mxCell>
        <mxCell id="lr75-girmY2DZmhZpHpu-221" value="" style="rounded=0;whiteSpace=wrap;html=1;fontSize=30;fillColor=#F3B7B8;" vertex="1" parent="1">
          <mxGeometry x="1708.9999999999998" y="351" width="30" height="30" as="geometry" />
        </mxCell>
        <mxCell id="lr75-girmY2DZmhZpHpu-222" value="" style="rounded=0;whiteSpace=wrap;html=1;fontSize=30;fillColor=#F3B7B8;" vertex="1" parent="1">
          <mxGeometry x="1748.9999999999998" y="351" width="30" height="30" as="geometry" />
        </mxCell>
        <mxCell id="lr75-girmY2DZmhZpHpu-223" value="" style="endArrow=none;html=1;rounded=0;fontSize=30;" edge="1" parent="1">
          <mxGeometry width="50" height="50" relative="1" as="geometry">
            <mxPoint x="1708.9999999999998" y="461" as="sourcePoint" />
            <mxPoint x="1708.9999999999998" y="401" as="targetPoint" />
          </mxGeometry>
        </mxCell>
        <mxCell id="lr75-girmY2DZmhZpHpu-224" value="" style="endArrow=none;html=1;rounded=0;fontSize=30;" edge="1" parent="1">
          <mxGeometry width="50" height="50" relative="1" as="geometry">
            <mxPoint x="1941.3999999999999" y="453" as="sourcePoint" />
            <mxPoint x="1941.3999999999999" y="393" as="targetPoint" />
          </mxGeometry>
        </mxCell>
        <mxCell id="lr75-girmY2DZmhZpHpu-225" value="" style="endArrow=classic;html=1;rounded=0;fontSize=30;" edge="1" parent="1">
          <mxGeometry width="50" height="50" relative="1" as="geometry">
            <mxPoint x="1862.61" y="431" as="sourcePoint" />
            <mxPoint x="1934.61" y="431" as="targetPoint" />
          </mxGeometry>
        </mxCell>
        <mxCell id="lr75-girmY2DZmhZpHpu-226" value="" style="endArrow=classic;html=1;rounded=0;fontSize=30;" edge="1" parent="1">
          <mxGeometry width="50" height="50" relative="1" as="geometry">
            <mxPoint x="1802.61" y="431" as="sourcePoint" />
            <mxPoint x="1718.9999999999998" y="431" as="targetPoint" />
          </mxGeometry>
        </mxCell>
        <mxCell id="lr75-girmY2DZmhZpHpu-227" value="" style="rounded=0;whiteSpace=wrap;html=1;fontSize=30;fillColor=#F3B7B8;" vertex="1" parent="1">
          <mxGeometry x="2064" y="351" width="30" height="30" as="geometry" />
        </mxCell>
        <mxCell id="lr75-girmY2DZmhZpHpu-228" value="" style="rounded=0;whiteSpace=wrap;html=1;fontSize=30;fillColor=#F3B7B8;" vertex="1" parent="1">
          <mxGeometry x="2104" y="351" width="30" height="30" as="geometry" />
        </mxCell>
        <mxCell id="lr75-girmY2DZmhZpHpu-229" value="" style="rounded=0;whiteSpace=wrap;html=1;fontSize=30;fillColor=#F3B7B8;" vertex="1" parent="1">
          <mxGeometry x="1983.9999999999998" y="351" width="30" height="30" as="geometry" />
        </mxCell>
        <mxCell id="lr75-girmY2DZmhZpHpu-230" value="" style="rounded=0;whiteSpace=wrap;html=1;fontSize=30;fillColor=#F3B7B8;" vertex="1" parent="1">
          <mxGeometry x="2023.9999999999998" y="351" width="30" height="30" as="geometry" />
        </mxCell>
        <mxCell id="lr75-girmY2DZmhZpHpu-231" value="..." style="text;html=1;strokeColor=none;fillColor=none;align=center;verticalAlign=middle;whiteSpace=wrap;rounded=0;fontSize=30;" vertex="1" parent="1">
          <mxGeometry x="1848.9999999999998" y="348.5" width="60" height="30" as="geometry" />
        </mxCell>
        <mxCell id="lr75-girmY2DZmhZpHpu-232" value="..." style="text;html=1;strokeColor=none;fillColor=none;align=center;verticalAlign=middle;whiteSpace=wrap;rounded=0;fontSize=30;" vertex="1" parent="1">
          <mxGeometry x="2134" y="346" width="60" height="30" as="geometry" />
        </mxCell>
        <mxCell id="lr75-girmY2DZmhZpHpu-233" value="" style="rounded=0;whiteSpace=wrap;html=1;fontSize=30;fillColor=#F4B183;" vertex="1" parent="1">
          <mxGeometry x="1900.9799999999998" y="351" width="30" height="30" as="geometry" />
        </mxCell>
        <mxCell id="lr75-girmY2DZmhZpHpu-234" value="" style="rounded=0;whiteSpace=wrap;html=1;fontSize=30;fillColor=#F4B183;" vertex="1" parent="1">
          <mxGeometry x="2186.6" y="351" width="30" height="30" as="geometry" />
        </mxCell>
        <mxCell id="lr75-girmY2DZmhZpHpu-235" value="r+1&amp;nbsp;" style="text;html=1;strokeColor=none;fillColor=none;align=center;verticalAlign=middle;whiteSpace=wrap;rounded=0;fontSize=30;" vertex="1" parent="1">
          <mxGeometry x="1802.61" y="413" width="70" height="30" as="geometry" />
        </mxCell>
        <mxCell id="lr75-girmY2DZmhZpHpu-236" value="" style="rounded=0;whiteSpace=wrap;html=1;fontSize=30;fillColor=#8FAADC;" vertex="1" parent="1">
          <mxGeometry x="2462.75" y="351" width="30" height="30" as="geometry" />
        </mxCell>
        <mxCell id="lr75-girmY2DZmhZpHpu-237" value="" style="rounded=0;whiteSpace=wrap;html=1;fontSize=30;fillColor=#8FAADC;" vertex="1" parent="1">
          <mxGeometry x="2502.75" y="351" width="30" height="30" as="geometry" />
        </mxCell>
        <mxCell id="lr75-girmY2DZmhZpHpu-238" value="..." style="text;html=1;strokeColor=none;fillColor=none;align=center;verticalAlign=middle;whiteSpace=wrap;rounded=0;fontSize=30;" vertex="1" parent="1">
          <mxGeometry x="2294" y="346" width="60" height="30" as="geometry" />
        </mxCell>
        <mxCell id="lr75-girmY2DZmhZpHpu-239" value="..." style="text;html=1;strokeColor=none;fillColor=none;align=center;verticalAlign=middle;whiteSpace=wrap;rounded=0;fontSize=30;" vertex="1" parent="1">
          <mxGeometry x="2545.25" y="348.5" width="60" height="30" as="geometry" />
        </mxCell>
        <mxCell id="lr75-girmY2DZmhZpHpu-240" value="" style="endArrow=none;html=1;rounded=0;fontSize=30;" edge="1" parent="1">
          <mxGeometry width="50" height="50" relative="1" as="geometry">
            <mxPoint x="1983.1999999999998" y="462" as="sourcePoint" />
            <mxPoint x="1983.1999999999998" y="402" as="targetPoint" />
          </mxGeometry>
        </mxCell>
        <mxCell id="lr75-girmY2DZmhZpHpu-241" value="" style="endArrow=none;html=1;rounded=0;fontSize=30;" edge="1" parent="1">
          <mxGeometry width="50" height="50" relative="1" as="geometry">
            <mxPoint x="2215.6" y="454" as="sourcePoint" />
            <mxPoint x="2215.6" y="394" as="targetPoint" />
          </mxGeometry>
        </mxCell>
        <mxCell id="lr75-girmY2DZmhZpHpu-242" value="" style="endArrow=classic;html=1;rounded=0;fontSize=30;" edge="1" parent="1">
          <mxGeometry width="50" height="50" relative="1" as="geometry">
            <mxPoint x="2136.81" y="432" as="sourcePoint" />
            <mxPoint x="2208.81" y="432" as="targetPoint" />
          </mxGeometry>
        </mxCell>
        <mxCell id="lr75-girmY2DZmhZpHpu-243" value="" style="endArrow=classic;html=1;rounded=0;fontSize=30;" edge="1" parent="1">
          <mxGeometry width="50" height="50" relative="1" as="geometry">
            <mxPoint x="2076.81" y="432" as="sourcePoint" />
            <mxPoint x="1993.1999999999998" y="432" as="targetPoint" />
          </mxGeometry>
        </mxCell>
        <mxCell id="lr75-girmY2DZmhZpHpu-244" value="r+1&amp;nbsp;" style="text;html=1;strokeColor=none;fillColor=none;align=center;verticalAlign=middle;whiteSpace=wrap;rounded=0;fontSize=30;" vertex="1" parent="1">
          <mxGeometry x="2076.81" y="414" width="70" height="30" as="geometry" />
        </mxCell>
      </root>
    </mxGraphModel>
  </diagram>
</mxfile>
